# xmcd
#
# Track frame offsets:
#	150
#	10818
#	22344
#	35930
#	47149
#	57501
#	68278
#	80660
#	91474
#	102655
#	113637
#	123903
#	135469
#	146623
#	158313
#	168738
#	181680
#	194851
#	205538
#	220428
#	233234
#	244915
#	255112
#	266679
#	278268
#	289464
#	300815
#	311905
#	324452
#	334345
#
# Disc length: 4634 seconds
#
# Revision: 0
# Processed by: cddbd v1.5.2PL0 Copyright (c) Steve Scherf et al.
# Submitted via: audiograbber 1.83.01
#
DISCID=b712181e
DTITLE=Frank Chacksfield - Frank Chacksfield In The Limelight
DYEAR=1900
DGENRE=
TTITLE0=Limelight (Terry's Theme)
TTITLE1=Limelight (Incidental Music)
TTITLE2=Flirtation Waltz
TTITLE3=Prelude To A Memory
TTITLE4=Pulling Strings
TTITLE5=Meet Mister Callaghan
TTITLE6=Gin Fizz
TTITLE7=Little Red Monkey
TTITLE8=Golden Violins
TTITLE9=The Golden Tango
TTITLE10=Dancing Princess
TTITLE11=The Pied Piper
TTITLE12=Song Of Canterbury
TTITLE13=Misty Valley
TTITLE14=Mademoiselle De Paris
TTITLE15=Black Velvet
TTITLE16=Someday I'll Find You
TTITLE17=Dance, Little Lady
TTITLE18=Twentieth Century Blues
TTITLE19=Smile
TTITLE20=Sur Le Pave De Paris
TTITLE21=A Kid For Two Farthings
TTITLE22=Cockleshell Heroes
TTITLE23=The Song Of The Trees
TTITLE24=Love Is A Many-Splendored Thing
TTITLE25=In Old Lisbon
TTITLE26=The Donkey Cart
TTITLE27=Memories Of You
TTITLE28=Waltzing Bugle Boy
TTITLE29=Ebb Tide
EXTD=
EXTT0=
EXTT1=
EXTT2=
EXTT3=
EXTT4=
EXTT5=
EXTT6=
EXTT7=
EXTT8=
EXTT9=
EXTT10=
EXTT11=
EXTT12=
EXTT13=
EXTT14=
EXTT15=
EXTT16=
EXTT17=
EXTT18=
EXTT19=
EXTT20=
EXTT21=
EXTT22=
EXTT23=
EXTT24=
EXTT25=
EXTT26=
EXTT27=
EXTT28=
EXTT29=
PLAYORDER=
